# xmcd
#
# Track frame offsets:
#	150
#	12156
#	33807
#	57238
#	72120
#	85570
#	100232
#	117644
#	130488
#	152010
#	169332
#	190417
#	201899
#	214837
#	228794
#	240941
#	254804
#	266104
#	284052
#	303608
#	317687
#
# Disc length: 4578 seconds
#
# Revision: 1
# Processed by: cddbd v1.5.2PL0 Copyright (c) Steve Scherf et al.
# Submitted via: audiograbber 1.83.01
#
DISCID=3311e015
DTITLE=Various Artist - Sweet Gum Bottom Blues
DYEAR=1900
DGENRE=Blues
TTITLE0=Ed Bell - Mamlish Blues
TTITLE1=Cooke and Green - You Got Me Dizzy
TTITLE2=Cooke and Green - Trouble in my mind
TTITLE3=Cooke and Green - Sliding Delta
TTITLE4=Ed Bell - Mean Conductor Blues
TTITLE5=Jay Kirgis - Bad Girl
TTITLE6=Jay Kirgis - Say What you Want
TTITLE7=Ed Bell - Frisco Whistle Blues
TTITLE8=Jeff Norwood - Stack of Dollars
TTITLE9=Jeff Norwood - Deep and Cold
TTITLE10=Rick Fines - Worried all the time
TTITLE11=Rick Fines - I'm good to go
TTITLE12=Rick Fines - It all comes home to roost
TTITLE13=Ed Bell - Squabblin' Blues
TTITLE14=Sam Pointer - Hambone Blues
TTITLE15=Sam Pointer - How Long Blues
TTITLE16=Sam Pointer  - My Little Canoe
TTITLE17=Willie King - You Gotta Have Love
TTITLE18=Willie King - The Stomper
TTITLE19=Little Jimmy Reed - Alabama's the place to be
TTITLE20=Little Jimmy Reed - My Little Dog
EXTD=
EXTT0=
EXTT1=
EXTT2=
EXTT3=
EXTT4=
EXTT5=
EXTT6=
EXTT7=
EXTT8=
EXTT9=
EXTT10=
EXTT11=
EXTT12=
EXTT13=
EXTT14=
EXTT15=
EXTT16=
EXTT17=
EXTT18=
EXTT19=
EXTT20=
PLAYORDER=
